<svg xmlns="http://www.w3.org/2000/svg" viewBox="0 0 300 350">
  <!-- Main dome outline -->
  <path fill="#00A651" d="M150 10c-60 0-110 50-140 110l30 20c0 0 20-40 50-40c30 0 40 0 60 0s30 40 60 40c30 0 50-40 50-40l30-20C260 60 210 10 150 10z"/>
  
  <!-- Inner dome detail -->
  <path fill="#00A651" d="M150 50c-40 0-70 30-90 70l20 10c0 0 10-30 30-30s30 0 40 0s20 30 40 30s30-30 30-30l20-10C220 80 190 50 150 50z"/>
  
  <!-- Main pillars -->
  <path fill="#00A651" d="M90 130c-10 0-15 5-15 15v150c0 10 5 15 15 15s15-5 15-15V145c0-10-5-15-15-15z"/>
  <path fill="#00A651" d="M150 130c-10 0-15 5-15 15v100c0 10 5 15 15 15s15-5 15-15V145c0-10-5-15-15-15z"/>
  <path fill="#00A651" d="M210 130c-10 0-15 5-15 15v150c0 10 5 15 15 15s15-5 15-15V145c0-10-5-15-15-15z"/>
  
  <!-- Right drip -->
  <path fill="#00A651" d="M250 145c-5 0-10 5-10 10v80c0 5 5 10 10 10s10-5 10-10v-80c0-5-5-10-10-10z"/>
  <circle fill="#00A651" cx="250" cy="260" r="8"/>
  
  <!-- Dots at the bottom -->
  <circle fill="#00A651" cx="90" cy="330" r="10"/>
  <circle fill="#00A651" cx="150" cy="265" r="10"/>
  <circle fill="#00A651" cx="210" cy="330" r="10"/>
</svg> 